<?xml version="1.0" encoding="UTF-8" standalone="no"?>
<!DOCTYPE svg PUBLIC "-//W3C//DTD SVG 1.1//EN"
 "http://www.w3.org/Graphics/SVG/1.1/DTD/svg11.dtd">
<!-- Generated by graphviz version 13.1.1 (20250719.2154)
 -->
<!-- Title: terraform_azure_architecture Pages: 1 -->
<svg width="741pt" height="519pt"
 viewBox="0.00 0.00 741.00 519.00" xmlns="http://www.w3.org/2000/svg" xmlns:xlink="http://www.w3.org/1999/xlink">
<g id="graph0" class="graph" transform="scale(1 1) rotate(0) translate(4 515.15)">
<title>terraform_azure_architecture</title>
<polygon fill="white" stroke="none" points="-4,4 -4,-515.15 737.46,-515.15 737.46,4 -4,4"/>
<text xml:space="preserve" text-anchor="middle" x="366.73" y="-493.85" font-family="Arial" font-size="14.00">Azure Terraform Infrastructure with vWAN</text>
<g id="clust1" class="cluster">
<title>cluster_networking</title>
<polygon fill="lightblue" stroke="lightblue" points="212.66,-198.75 212.66,-359.5 437.66,-359.5 437.66,-198.75 212.66,-198.75"/>
<text xml:space="preserve" text-anchor="middle" x="325.16" y="-342.2" font-family="Arial" font-size="14.00">Networking Layer</text>
</g>
<g id="clust2" class="cluster">
<title>cluster_compute</title>
<polygon fill="lightgreen" stroke="lightgreen" points="126.66,-8 126.66,-168.75 268.66,-168.75 268.66,-8 126.66,-8"/>
<text xml:space="preserve" text-anchor="middle" x="197.66" y="-151.45" font-family="Arial" font-size="14.00">Compute Layer</text>
</g>
<g id="clust3" class="cluster">
<title>cluster_data</title>
<polygon fill="lightyellow" stroke="lightyellow" points="320.66,-92.5 320.66,-168.75 563.66,-168.75 563.66,-92.5 320.66,-92.5"/>
<text xml:space="preserve" text-anchor="middle" x="442.16" y="-151.45" font-family="Arial" font-size="14.00">Data Layer</text>
</g>
<g id="clust4" class="cluster">
<title>cluster_security</title>
<polygon fill="lightcoral" stroke="lightcoral" points="424.66,-403.15 424.66,-479.4 612.66,-479.4 612.66,-403.15 424.66,-403.15"/>
<text xml:space="preserve" text-anchor="middle" x="518.66" y="-462.1" font-family="Arial" font-size="14.00">Security &amp; Monitoring</text>
</g>
<!-- vwan -->
<g id="node1" class="node">
<title>vwan</title>
<polygon fill="lightcyan" stroke="black" points="359.53,-327.75 261.78,-327.75 261.78,-291.25 359.53,-291.25 359.53,-327.75"/>
<text xml:space="preserve" text-anchor="middle" x="310.66" y="-312.35" font-family="Arial" font-size="12.00">Azure vWAN</text>
<text xml:space="preserve" text-anchor="middle" x="310.66" y="-298.1" font-family="Arial" font-size="12.00">(Global Transit)</text>
</g>
<!-- networking -->
<g id="node2" class="node">
<title>networking</title>
<polygon fill="lightcyan" stroke="black" points="429.16,-243.25 332.16,-243.25 332.16,-206.75 429.16,-206.75 429.16,-243.25"/>
<text xml:space="preserve" text-anchor="middle" x="380.66" y="-227.85" font-family="Arial" font-size="12.00">Virtual Network</text>
<text xml:space="preserve" text-anchor="middle" x="380.66" y="-213.6" font-family="Arial" font-size="12.00">(Hub&#45;Spoke)</text>
</g>
<!-- vwan&#45;&gt;networking -->
<g id="edge1" class="edge">
<title>vwan&#45;&gt;networking</title>
<path fill="none" stroke="black" d="M330.59,-290.9C336.34,-285.46 342.45,-279.31 347.66,-273.25 353.13,-266.88 358.55,-259.62 363.38,-252.72"/>
<polygon fill="black" stroke="black" points="365.95,-255.16 368.68,-244.92 360.17,-251.22 365.95,-255.16"/>
<text xml:space="preserve" text-anchor="middle" x="382.04" y="-263.75" font-family="Arial" font-size="10.00">connects to</text>
</g>
<!-- firewall -->
<g id="node3" class="node">
<title>firewall</title>
<polygon fill="orange" stroke="black" points="314.28,-243.25 221.03,-243.25 221.03,-206.75 314.28,-206.75 314.28,-243.25"/>
<text xml:space="preserve" text-anchor="middle" x="267.66" y="-227.85" font-family="Arial" font-size="12.00">Azure Firewall</text>
<text xml:space="preserve" text-anchor="middle" x="267.66" y="-213.6" font-family="Arial" font-size="12.00">(Security)</text>
</g>
<!-- vwan&#45;&gt;firewall -->
<g id="edge2" class="edge">
<title>vwan&#45;&gt;firewall</title>
<path fill="none" stroke="black" d="M296.6,-290.8C292.67,-285.36 288.6,-279.23 285.41,-273.25 282.18,-267.21 279.27,-260.45 276.78,-253.98"/>
<polygon fill="black" stroke="black" points="280.21,-253.18 273.53,-244.96 273.63,-255.55 280.21,-253.18"/>
<text xml:space="preserve" text-anchor="middle" x="316.53" y="-263.75" font-family="Arial" font-size="10.00">routes through</text>
</g>
<!-- compute -->
<g id="node4" class="node">
<title>compute</title>
<polygon fill="lightgreen" stroke="black" points="224.78,-137 134.53,-137 134.53,-100.5 224.78,-100.5 224.78,-137"/>
<text xml:space="preserve" text-anchor="middle" x="179.66" y="-121.6" font-family="Arial" font-size="12.00">VM Scale Set</text>
<text xml:space="preserve" text-anchor="middle" x="179.66" y="-107.35" font-family="Arial" font-size="12.00">(Auto&#45;scaling)</text>
</g>
<!-- networking&#45;&gt;compute -->
<g id="edge3" class="edge">
<title>networking&#45;&gt;compute</title>
<path fill="none" stroke="black" d="M341.89,-206.34C335.82,-203.72 329.59,-201.11 323.66,-198.75 286.43,-183.96 273.5,-188.52 238.66,-168.75 227.13,-162.21 215.65,-153.35 205.92,-144.96"/>
<polygon fill="black" stroke="black" points="208.45,-142.52 198.65,-138.47 203.79,-147.74 208.45,-142.52"/>
<text xml:space="preserve" text-anchor="middle" x="304.29" y="-179.25" font-family="Arial" font-size="10.00">hosts</text>
</g>
<!-- database -->
<g id="node6" class="node">
<title>database</title>
<polygon fill="lightyellow" stroke="black" points="555.91,-137 451.41,-137 451.41,-100.5 555.91,-100.5 555.91,-137"/>
<text xml:space="preserve" text-anchor="middle" x="503.66" y="-121.6" font-family="Arial" font-size="12.00">PostgreSQL</text>
<text xml:space="preserve" text-anchor="middle" x="503.66" y="-107.35" font-family="Arial" font-size="12.00">(Flexible Server)</text>
</g>
<!-- networking&#45;&gt;database -->
<g id="edge4" class="edge">
<title>networking&#45;&gt;database</title>
<path fill="none" stroke="black" d="M400.11,-206.29C410.05,-197.33 422.4,-186.34 433.66,-176.75 446.2,-166.06 460.26,-154.53 472.46,-144.66"/>
<polygon fill="black" stroke="black" points="474.61,-147.42 480.2,-138.42 470.22,-141.97 474.61,-147.42"/>
<text xml:space="preserve" text-anchor="middle" x="468.16" y="-179.25" font-family="Arial" font-size="10.00">private endpoint</text>
</g>
<!-- storage -->
<g id="node7" class="node">
<title>storage</title>
<polygon fill="lightyellow" stroke="black" points="432.91,-137 328.41,-137 328.41,-100.5 432.91,-100.5 432.91,-137"/>
<text xml:space="preserve" text-anchor="middle" x="380.66" y="-121.6" font-family="Arial" font-size="12.00">Storage Account</text>
<text xml:space="preserve" text-anchor="middle" x="380.66" y="-107.35" font-family="Arial" font-size="12.00">(Blob Storage)</text>
</g>
<!-- networking&#45;&gt;storage -->
<g id="edge5" class="edge">
<title>networking&#45;&gt;storage</title>
<path fill="none" stroke="black" d="M353.7,-206.33C344.91,-198.22 338.2,-187.93 341.66,-176.75 344.99,-165.98 351.13,-155.44 357.57,-146.4"/>
<polygon fill="black" stroke="black" points="360.35,-148.53 363.64,-138.46 354.79,-144.28 360.35,-148.53"/>
<text xml:space="preserve" text-anchor="middle" x="376.16" y="-179.25" font-family="Arial" font-size="10.00">private endpoint</text>
</g>
<!-- appgw -->
<g id="node5" class="node">
<title>appgw</title>
<polygon fill="lightgreen" stroke="black" points="260.78,-52.5 134.53,-52.5 134.53,-16 260.78,-16 260.78,-52.5"/>
<text xml:space="preserve" text-anchor="middle" x="197.66" y="-37.1" font-family="Arial" font-size="12.00">Application Gateway</text>
<text xml:space="preserve" text-anchor="middle" x="197.66" y="-22.85" font-family="Arial" font-size="12.00">(Load Balancer)</text>
</g>
<!-- firewall&#45;&gt;appgw -->
<g id="edge13" class="edge">
<title>firewall&#45;&gt;appgw</title>
<path fill="none" stroke="black" d="M269.15,-206.47C270.85,-176.39 270.62,-114 244.66,-70.5 242.49,-66.87 239.8,-63.49 236.8,-60.38"/>
<polygon fill="black" stroke="black" points="239.22,-57.85 229.44,-53.78 234.55,-63.06 239.22,-57.85"/>
<text xml:space="preserve" text-anchor="middle" x="286.94" y="-115.25" font-family="Arial" font-size="10.00">protects</text>
</g>
<!-- compute&#45;&gt;appgw -->
<g id="edge6" class="edge">
<title>compute&#45;&gt;appgw</title>
<path fill="none" stroke="black" d="M183.47,-100.25C185.79,-89.64 188.8,-75.85 191.45,-63.71"/>
<polygon fill="black" stroke="black" points="194.81,-64.72 193.52,-54.2 187.97,-63.22 194.81,-64.72"/>
<text xml:space="preserve" text-anchor="middle" x="215.24" y="-73" font-family="Arial" font-size="10.00">backend for</text>
</g>
<!-- security -->
<g id="node8" class="node">
<title>security</title>
<polygon fill="lightcoral" stroke="black" points="498.78,-447.65 432.53,-447.65 432.53,-411.15 498.78,-411.15 498.78,-447.65"/>
<text xml:space="preserve" text-anchor="middle" x="465.66" y="-432.25" font-family="Arial" font-size="12.00">Key Vault</text>
<text xml:space="preserve" text-anchor="middle" x="465.66" y="-418" font-family="Arial" font-size="12.00">(Secrets)</text>
</g>
<!-- security&#45;&gt;compute -->
<g id="edge7" class="edge">
<title>security&#45;&gt;compute</title>
<path fill="none" stroke="black" d="M432.38,-425.78C380.54,-420.95 277.92,-408.36 195.66,-379.5 129.38,-356.25 104.31,-338.64 78.66,-273.25 59.16,-223.56 108.3,-173.25 144.68,-144.36"/>
<polygon fill="black" stroke="black" points="146.61,-147.29 152.4,-138.41 142.34,-141.74 146.61,-147.29"/>
<text xml:space="preserve" text-anchor="middle" x="114.66" y="-263.75" font-family="Arial" font-size="10.00">provides secrets</text>
</g>
<!-- security&#45;&gt;database -->
<g id="edge8" class="edge">
<title>security&#45;&gt;database</title>
<path fill="none" stroke="black" d="M488.87,-411C498.12,-402.62 507.73,-391.73 512.66,-379.5 544.34,-300.81 524.64,-197.61 511.93,-148.34"/>
<polygon fill="black" stroke="black" points="515.33,-147.51 509.36,-138.76 508.57,-149.32 515.33,-147.51"/>
<text xml:space="preserve" text-anchor="middle" x="568.29" y="-263.75" font-family="Arial" font-size="10.00">stores credentials</text>
</g>
<!-- monitoring -->
<g id="node9" class="node">
<title>monitoring</title>
<polygon fill="lightcoral" stroke="black" points="604.66,-447.65 516.66,-447.65 516.66,-411.15 604.66,-411.15 604.66,-447.65"/>
<text xml:space="preserve" text-anchor="middle" x="560.66" y="-432.25" font-family="Arial" font-size="12.00">Log Analytics</text>
<text xml:space="preserve" text-anchor="middle" x="560.66" y="-418" font-family="Arial" font-size="12.00">(Monitoring)</text>
</g>
<!-- monitoring&#45;&gt;vwan -->
<g id="edge9" class="edge">
<title>monitoring&#45;&gt;vwan</title>
<path fill="none" stroke="black" d="M531.82,-410.81C524.07,-406.29 515.63,-401.57 507.66,-397.5 460.37,-373.37 404.94,-349.24 364.94,-332.54"/>
<polygon fill="black" stroke="black" points="366.33,-329.33 355.75,-328.72 363.64,-335.79 366.33,-329.33"/>
<text xml:space="preserve" text-anchor="middle" x="489.42" y="-370" font-family="Arial" font-size="10.00">monitors</text>
</g>
<!-- monitoring&#45;&gt;networking -->
<g id="edge10" class="edge">
<title>monitoring&#45;&gt;networking</title>
<path fill="none" stroke="black" d="M572.7,-410.67C593.73,-377.32 631.55,-304.71 594.66,-261.25 575.22,-238.35 496.93,-230.31 440.66,-227.49"/>
<polygon fill="black" stroke="black" points="441.03,-224 430.89,-227.05 440.72,-231 441.03,-224"/>
<text xml:space="preserve" text-anchor="middle" x="619.15" y="-306" font-family="Arial" font-size="10.00">logs</text>
</g>
<!-- monitoring&#45;&gt;compute -->
<g id="edge11" class="edge">
<title>monitoring&#45;&gt;compute</title>
<path fill="none" stroke="black" d="M535.24,-410.8C526.8,-405.74 517.14,-400.72 507.66,-397.5 380.8,-354.45 313.68,-442.65 208.66,-359.5 145.84,-309.76 160.65,-200.67 172.19,-148.56"/>
<polygon fill="black" stroke="black" points="175.57,-149.49 174.45,-138.95 168.76,-147.89 175.57,-149.49"/>
<text xml:space="preserve" text-anchor="middle" x="180.28" y="-263.75" font-family="Arial" font-size="10.00">metrics</text>
</g>
<!-- monitoring&#45;&gt;database -->
<g id="edge12" class="edge">
<title>monitoring&#45;&gt;database</title>
<path fill="none" stroke="black" d="M585.4,-410.66C601.04,-398.12 620.37,-379.95 631.66,-359.5 671.64,-287.01 715.63,-244.21 667.66,-176.75 645.04,-144.94 603.34,-130.73 567.66,-124.45"/>
<polygon fill="black" stroke="black" points="568.23,-121 557.81,-122.91 567.15,-127.91 568.23,-121"/>
<text xml:space="preserve" text-anchor="middle" x="708.71" y="-263.75" font-family="Arial" font-size="10.00">diagnostics</text>
</g>
<!-- internet -->
<g id="node10" class="node">
<title>internet</title>
<polygon fill="white" stroke="black" points="501.53,-327.5 445.78,-327.5 445.78,-291.5 501.53,-291.5 501.53,-327.5"/>
<text xml:space="preserve" text-anchor="middle" x="473.66" y="-305.23" font-family="Arial" font-size="12.00">Internet</text>
</g>
<!-- internet&#45;&gt;firewall -->
<g id="edge15" class="edge">
<title>internet&#45;&gt;firewall</title>
<path fill="none" stroke="black" d="M455.56,-291.18C443.9,-280.97 427.92,-268.64 411.66,-261.25 378.29,-246.09 364.62,-251.93 325.69,-243.46"/>
<polygon fill="black" stroke="black" points="326.63,-240.09 316.09,-241.18 325.01,-246.9 326.63,-240.09"/>
<text xml:space="preserve" text-anchor="middle" x="446.63" y="-263.75" font-family="Arial" font-size="10.00">filtered</text>
</g>
<!-- internet&#45;&gt;appgw -->
<g id="edge14" class="edge">
<title>internet&#45;&gt;appgw</title>
<path fill="none" stroke="black" d="M501.86,-305.29C537.97,-300.53 597.45,-290.28 610.66,-273.25 629.13,-249.42 806.38,-309.34 567.66,-92.5 525.53,-54.23 367.88,-41.53 272.48,-37.32"/>
<polygon fill="black" stroke="black" points="272.82,-33.83 262.68,-36.91 272.53,-40.83 272.82,-33.83"/>
<text xml:space="preserve" text-anchor="middle" x="677.46" y="-179.25" font-family="Arial" font-size="10.00">HTTPS</text>
</g>
<!-- onpremises -->
<g id="node11" class="node">
<title>onpremises</title>
<polygon fill="white" stroke="black" points="223.32,-439.26 111.66,-461.3 0,-439.26 0.1,-403.59 223.21,-403.59 223.32,-439.26"/>
<text xml:space="preserve" text-anchor="middle" x="111.66" y="-432.25" font-family="Arial" font-size="12.00">On&#45;Premises</text>
<text xml:space="preserve" text-anchor="middle" x="111.66" y="-418" font-family="Arial" font-size="12.00">(VPN/ExpressRoute)</text>
</g>
<!-- onpremises&#45;&gt;vwan -->
<g id="edge16" class="edge">
<title>onpremises&#45;&gt;vwan</title>
<path fill="none" stroke="black" d="M154.35,-403.11C189.07,-382.54 237.66,-353.75 271.41,-333.75"/>
<polygon fill="black" stroke="black" points="272.83,-336.98 279.65,-328.87 269.26,-330.96 272.83,-336.98"/>
<text xml:space="preserve" text-anchor="middle" x="234.03" y="-370" font-family="Arial" font-size="10.00">site&#45;to&#45;site</text>
</g>
</g>
</svg>
