<?xml version="1.0" encoding="UTF-8" standalone="no"?>
<!DOCTYPE svg PUBLIC "-//W3C//DTD SVG 1.1//EN"
 "http://www.w3.org/Graphics/SVG/1.1/DTD/svg11.dtd">
<!-- Generated by graphviz version 13.1.1 (20250719.2154)
 -->
<!-- Title: TerraformModules Pages: 1 -->
<svg width="1017pt" height="828pt"
 viewBox="0.00 0.00 1017.00 828.00" xmlns="http://www.w3.org/2000/svg" xmlns:xlink="http://www.w3.org/1999/xlink">
<g id="graph0" class="graph" transform="scale(1 1) rotate(0) translate(4 823.65)">
<title>TerraformModules</title>
<polygon fill="white" stroke="none" points="-4,4 -4,-823.65 1013,-823.65 1013,4 -4,4"/>
<!-- main -->
<g id="node1" class="node">
<title>main</title>
<path fill="darkseagreen" stroke="black" d="M396.62,-819.65C396.62,-819.65 322.88,-819.65 322.88,-819.65 316.88,-819.65 310.88,-813.65 310.88,-807.65 310.88,-807.65 310.88,-790.65 310.88,-790.65 310.88,-784.65 316.88,-778.65 322.88,-778.65 322.88,-778.65 396.62,-778.65 396.62,-778.65 402.62,-778.65 408.62,-784.65 408.62,-790.65 408.62,-790.65 408.62,-807.65 408.62,-807.65 408.62,-813.65 402.62,-819.65 396.62,-819.65"/>
<text xml:space="preserve" text-anchor="middle" x="359.75" y="-802.35" font-family="Times New Roman,serif" font-size="14.00">main.tf</text>
<text xml:space="preserve" text-anchor="middle" x="359.75" y="-785.85" font-family="Times New Roman,serif" font-size="14.00">(Root Module)</text>
</g>
<!-- rg_main -->
<g id="node2" class="node">
<title>rg_main</title>
<path fill="lightcyan" stroke="black" d="M101.5,-677.83C101.5,-677.83 12,-677.83 12,-677.83 6,-677.83 0,-671.83 0,-665.83 0,-665.83 0,-648.83 0,-648.83 0,-642.83 6,-636.83 12,-636.83 12,-636.83 101.5,-636.83 101.5,-636.83 107.5,-636.83 113.5,-642.83 113.5,-648.83 113.5,-648.83 113.5,-665.83 113.5,-665.83 113.5,-671.83 107.5,-677.83 101.5,-677.83"/>
<text xml:space="preserve" text-anchor="middle" x="56.75" y="-660.53" font-family="Times New Roman,serif" font-size="14.00">Resource Group</text>
<text xml:space="preserve" text-anchor="middle" x="56.75" y="-644.03" font-family="Times New Roman,serif" font-size="14.00">(Primary &#45; EUS2)</text>
</g>
<!-- main&#45;&gt;rg_main -->
<g id="edge1" class="edge">
<title>main&#45;&gt;rg_main</title>
<path fill="none" stroke="black" d="M310.56,-795.87C270.4,-792.33 213.15,-783.34 168.25,-760.65 132.69,-742.68 100.14,-710.1 79.51,-686.52"/>
<polygon fill="black" stroke="black" points="82.34,-684.45 73.19,-679.13 77.02,-689 82.34,-684.45"/>
<text xml:space="preserve" text-anchor="middle" x="187" y="-739.1" font-family="Times New Roman,serif" font-size="14.00">creates</text>
</g>
<!-- rg_secondary -->
<g id="node3" class="node">
<title>rg_secondary</title>
<path fill="lightcyan" stroke="black" stroke-dasharray="5,2" d="M250.12,-686.08C250.12,-686.08 143.38,-686.08 143.38,-686.08 137.38,-686.08 131.38,-680.08 131.38,-674.08 131.38,-674.08 131.38,-640.58 131.38,-640.58 131.38,-634.58 137.38,-628.58 143.38,-628.58 143.38,-628.58 250.12,-628.58 250.12,-628.58 256.12,-628.58 262.12,-634.58 262.12,-640.58 262.12,-640.58 262.12,-674.08 262.12,-674.08 262.12,-680.08 256.12,-686.08 250.12,-686.08"/>
<text xml:space="preserve" text-anchor="middle" x="196.75" y="-668.78" font-family="Times New Roman,serif" font-size="14.00">Resource Group</text>
<text xml:space="preserve" text-anchor="middle" x="196.75" y="-652.28" font-family="Times New Roman,serif" font-size="14.00">(Secondary &#45; WUS2)</text>
<text xml:space="preserve" text-anchor="middle" x="196.75" y="-635.78" font-family="Times New Roman,serif" font-size="14.00">[Production Only]</text>
</g>
<!-- main&#45;&gt;rg_secondary -->
<g id="edge2" class="edge">
<title>main&#45;&gt;rg_secondary</title>
<path fill="none" stroke="black" stroke-dasharray="5,2" d="M310.42,-794.96C283.5,-790.75 251.4,-781.36 230,-760.65 213.01,-744.21 204.69,-719.02 200.63,-697.74"/>
<polygon fill="black" stroke="black" points="204.08,-697.21 199.02,-687.9 197.18,-698.33 204.08,-697.21"/>
<text xml:space="preserve" text-anchor="middle" x="252.88" y="-747.35" font-family="Times New Roman,serif" font-size="14.00">creates</text>
<text xml:space="preserve" text-anchor="middle" x="252.88" y="-730.85" font-family="Times New Roman,serif" font-size="14.00">(if prod)</text>
</g>
<!-- vwan -->
<g id="node4" class="node">
<title>vwan</title>
<path fill="lightgoldenrodyellow" stroke="black" d="M750.38,-107C750.38,-107 669.12,-107 669.12,-107 663.12,-107 657.12,-101 657.12,-95 657.12,-95 657.12,-12 657.12,-12 657.12,-6 663.12,0 669.12,0 669.12,0 750.38,0 750.38,0 756.38,0 762.38,-6 762.38,-12 762.38,-12 762.38,-95 762.38,-95 762.38,-101 756.38,-107 750.38,-107"/>
<text xml:space="preserve" text-anchor="middle" x="709.75" y="-89.7" font-family="Times New Roman,serif" font-size="14.00">vWAN Module</text>
<text xml:space="preserve" text-anchor="middle" x="709.75" y="-73.2" font-family="Times New Roman,serif" font-size="14.00">&#45; Virtual WAN</text>
<text xml:space="preserve" text-anchor="middle" x="709.75" y="-56.7" font-family="Times New Roman,serif" font-size="14.00">&#45; Virtual Hub</text>
<text xml:space="preserve" text-anchor="middle" x="709.75" y="-40.2" font-family="Times New Roman,serif" font-size="14.00">&#45; Azure Firewall</text>
<text xml:space="preserve" text-anchor="middle" x="709.75" y="-23.7" font-family="Times New Roman,serif" font-size="14.00">&#45; VPN Gateway</text>
<text xml:space="preserve" text-anchor="middle" x="709.75" y="-7.2" font-family="Times New Roman,serif" font-size="14.00">&#45; ExpressRoute</text>
</g>
<!-- main&#45;&gt;vwan -->
<g id="edge3" class="edge">
<title>main&#45;&gt;vwan</title>
<path fill="none" stroke="black" d="M342.45,-778.4C321.72,-752.64 289.75,-705.29 289.75,-658.33 289.75,-658.33 289.75,-658.33 289.75,-212 289.75,-136.92 528.04,-85.58 645.65,-64.82"/>
<polygon fill="black" stroke="black" points="646.24,-68.27 655.49,-63.11 645.04,-61.38 646.24,-68.27"/>
<text xml:space="preserve" text-anchor="middle" x="317.88" y="-430.7" font-family="Times New Roman,serif" font-size="14.00">provisions</text>
</g>
<!-- networking -->
<g id="node5" class="node">
<title>networking</title>
<path fill="lightgoldenrodyellow" stroke="black" d="M513.25,-266.5C513.25,-266.5 410.25,-266.5 410.25,-266.5 404.25,-266.5 398.25,-260.5 398.25,-254.5 398.25,-254.5 398.25,-171.5 398.25,-171.5 398.25,-165.5 404.25,-159.5 410.25,-159.5 410.25,-159.5 513.25,-159.5 513.25,-159.5 519.25,-159.5 525.25,-165.5 525.25,-171.5 525.25,-171.5 525.25,-254.5 525.25,-254.5 525.25,-260.5 519.25,-266.5 513.25,-266.5"/>
<text xml:space="preserve" text-anchor="middle" x="461.75" y="-249.2" font-family="Times New Roman,serif" font-size="14.00">Networking Module</text>
<text xml:space="preserve" text-anchor="middle" x="461.75" y="-232.7" font-family="Times New Roman,serif" font-size="14.00">&#45; Virtual Network</text>
<text xml:space="preserve" text-anchor="middle" x="461.75" y="-216.2" font-family="Times New Roman,serif" font-size="14.00">&#45; Subnets</text>
<text xml:space="preserve" text-anchor="middle" x="461.75" y="-199.7" font-family="Times New Roman,serif" font-size="14.00">&#45; NSGs</text>
<text xml:space="preserve" text-anchor="middle" x="461.75" y="-183.2" font-family="Times New Roman,serif" font-size="14.00">&#45; Route Tables</text>
<text xml:space="preserve" text-anchor="middle" x="461.75" y="-166.7" font-family="Times New Roman,serif" font-size="14.00">&#45; DDoS Protection</text>
</g>
<!-- main&#45;&gt;networking -->
<g id="edge4" class="edge">
<title>main&#45;&gt;networking</title>
<path fill="none" stroke="black" d="M359.4,-778.41C358.68,-736.7 357.06,-636.52 356.5,-552.5 355.71,-432.58 331.11,-390.2 387.75,-284.5 389.28,-281.64 390.97,-278.83 392.79,-276.08"/>
<polygon fill="black" stroke="black" points="395.49,-278.31 398.54,-268.17 389.83,-274.2 395.49,-278.31"/>
<text xml:space="preserve" text-anchor="middle" x="384.62" y="-502.2" font-family="Times New Roman,serif" font-size="14.00">provisions</text>
</g>
<!-- security -->
<g id="node6" class="node">
<title>security</title>
<path fill="lightgoldenrodyellow" stroke="black" d="M714.88,-258.25C714.88,-258.25 624.62,-258.25 624.62,-258.25 618.62,-258.25 612.62,-252.25 612.62,-246.25 612.62,-246.25 612.62,-179.75 612.62,-179.75 612.62,-173.75 618.62,-167.75 624.62,-167.75 624.62,-167.75 714.88,-167.75 714.88,-167.75 720.88,-167.75 726.88,-173.75 726.88,-179.75 726.88,-179.75 726.88,-246.25 726.88,-246.25 726.88,-252.25 720.88,-258.25 714.88,-258.25"/>
<text xml:space="preserve" text-anchor="middle" x="669.75" y="-240.95" font-family="Times New Roman,serif" font-size="14.00">Security Module</text>
<text xml:space="preserve" text-anchor="middle" x="669.75" y="-224.45" font-family="Times New Roman,serif" font-size="14.00">&#45; Key Vault</text>
<text xml:space="preserve" text-anchor="middle" x="669.75" y="-207.95" font-family="Times New Roman,serif" font-size="14.00">&#45; Storage Account</text>
<text xml:space="preserve" text-anchor="middle" x="669.75" y="-191.45" font-family="Times New Roman,serif" font-size="14.00">&#45; App Insights</text>
<text xml:space="preserve" text-anchor="middle" x="669.75" y="-174.95" font-family="Times New Roman,serif" font-size="14.00">&#45; Access Policies</text>
</g>
<!-- main&#45;&gt;security -->
<g id="edge5" class="edge">
<title>main&#45;&gt;security</title>
<path fill="none" stroke="black" d="M409.03,-796.81C532.99,-792.49 853.59,-775.09 933.75,-709.65 952.59,-694.27 952.75,-682.65 952.75,-658.33 952.75,-658.33 952.75,-658.33 952.75,-363.25 952.75,-266.73 822.37,-232.48 738.6,-220.43"/>
<polygon fill="black" stroke="black" points="739.24,-216.98 728.86,-219.11 738.3,-223.92 739.24,-216.98"/>
<text xml:space="preserve" text-anchor="middle" x="980.88" y="-502.2" font-family="Times New Roman,serif" font-size="14.00">provisions</text>
</g>
<!-- database -->
<g id="node7" class="node">
<title>database</title>
<path fill="lightgoldenrodyellow" stroke="black" d="M517.88,-409.5C517.88,-409.5 403.62,-409.5 403.62,-409.5 397.62,-409.5 391.62,-403.5 391.62,-397.5 391.62,-397.5 391.62,-331 391.62,-331 391.62,-325 397.62,-319 403.62,-319 403.62,-319 517.88,-319 517.88,-319 523.88,-319 529.88,-325 529.88,-331 529.88,-331 529.88,-397.5 529.88,-397.5 529.88,-403.5 523.88,-409.5 517.88,-409.5"/>
<text xml:space="preserve" text-anchor="middle" x="460.75" y="-392.2" font-family="Times New Roman,serif" font-size="14.00">Database Module</text>
<text xml:space="preserve" text-anchor="middle" x="460.75" y="-375.7" font-family="Times New Roman,serif" font-size="14.00">&#45; PostgreSQL Flexible</text>
<text xml:space="preserve" text-anchor="middle" x="460.75" y="-359.2" font-family="Times New Roman,serif" font-size="14.00">&#45; Private Endpoint</text>
<text xml:space="preserve" text-anchor="middle" x="460.75" y="-342.7" font-family="Times New Roman,serif" font-size="14.00">&#45; DNS Zone</text>
<text xml:space="preserve" text-anchor="middle" x="460.75" y="-326.2" font-family="Times New Roman,serif" font-size="14.00">&#45; Backups</text>
</g>
<!-- main&#45;&gt;database -->
<g id="edge6" class="edge">
<title>main&#45;&gt;database</title>
<path fill="none" stroke="black" d="M364.35,-778.43C379.02,-715.58 425,-518.47 447.75,-420.98"/>
<polygon fill="black" stroke="black" points="451.13,-421.89 449.99,-411.36 444.31,-420.3 451.13,-421.89"/>
<text xml:space="preserve" text-anchor="middle" x="440.71" y="-573.7" font-family="Times New Roman,serif" font-size="14.00">provisions</text>
</g>
<!-- compute -->
<g id="node8" class="node">
<title>compute</title>
<path fill="lightgoldenrodyellow" stroke="black" d="M656.12,-552.5C656.12,-552.5 549.38,-552.5 549.38,-552.5 543.38,-552.5 537.38,-546.5 537.38,-540.5 537.38,-540.5 537.38,-474 537.38,-474 537.38,-468 543.38,-462 549.38,-462 549.38,-462 656.12,-462 656.12,-462 662.12,-462 668.12,-468 668.12,-474 668.12,-474 668.12,-540.5 668.12,-540.5 668.12,-546.5 662.12,-552.5 656.12,-552.5"/>
<text xml:space="preserve" text-anchor="middle" x="602.75" y="-535.2" font-family="Times New Roman,serif" font-size="14.00">Compute Module</text>
<text xml:space="preserve" text-anchor="middle" x="602.75" y="-518.7" font-family="Times New Roman,serif" font-size="14.00">&#45; VM Scale Set</text>
<text xml:space="preserve" text-anchor="middle" x="602.75" y="-502.2" font-family="Times New Roman,serif" font-size="14.00">&#45; App Gateway WAF</text>
<text xml:space="preserve" text-anchor="middle" x="602.75" y="-485.7" font-family="Times New Roman,serif" font-size="14.00">&#45; Public IP</text>
<text xml:space="preserve" text-anchor="middle" x="602.75" y="-469.2" font-family="Times New Roman,serif" font-size="14.00">&#45; Autoscaling</text>
</g>
<!-- main&#45;&gt;compute -->
<g id="edge7" class="edge">
<title>main&#45;&gt;compute</title>
<path fill="none" stroke="black" d="M379.15,-778.46C383.97,-772.97 388.86,-766.81 392.75,-760.65 432.95,-697.01 411.53,-663.01 459.5,-605 465.14,-598.19 495.95,-577.14 527.56,-556.41"/>
<polygon fill="black" stroke="black" points="529.2,-559.52 535.65,-551.12 525.37,-553.66 529.2,-559.52"/>
<text xml:space="preserve" text-anchor="middle" x="487.62" y="-652.28" font-family="Times New Roman,serif" font-size="14.00">provisions</text>
</g>
<!-- monitoring -->
<g id="node9" class="node">
<title>monitoring</title>
<path fill="lightgoldenrodyellow" stroke="black" d="M637.12,-702.58C637.12,-702.58 536.38,-702.58 536.38,-702.58 530.38,-702.58 524.38,-696.58 524.38,-690.58 524.38,-690.58 524.38,-624.08 524.38,-624.08 524.38,-618.08 530.38,-612.08 536.38,-612.08 536.38,-612.08 637.12,-612.08 637.12,-612.08 643.12,-612.08 649.12,-618.08 649.12,-624.08 649.12,-624.08 649.12,-690.58 649.12,-690.58 649.12,-696.58 643.12,-702.58 637.12,-702.58"/>
<text xml:space="preserve" text-anchor="middle" x="586.75" y="-685.28" font-family="Times New Roman,serif" font-size="14.00">Monitoring Module</text>
<text xml:space="preserve" text-anchor="middle" x="586.75" y="-668.78" font-family="Times New Roman,serif" font-size="14.00">&#45; Log Analytics</text>
<text xml:space="preserve" text-anchor="middle" x="586.75" y="-652.28" font-family="Times New Roman,serif" font-size="14.00">&#45; Metric Alerts</text>
<text xml:space="preserve" text-anchor="middle" x="586.75" y="-635.78" font-family="Times New Roman,serif" font-size="14.00">&#45; Action Groups</text>
<text xml:space="preserve" text-anchor="middle" x="586.75" y="-619.28" font-family="Times New Roman,serif" font-size="14.00">&#45; Diagnostics</text>
</g>
<!-- main&#45;&gt;monitoring -->
<g id="edge8" class="edge">
<title>main&#45;&gt;monitoring</title>
<path fill="none" stroke="black" d="M408.93,-784.33C426.8,-778.31 446.76,-770.38 463.75,-760.65 487.9,-746.82 511.99,-728.15 532.36,-710.53"/>
<polygon fill="black" stroke="black" points="534.52,-713.3 539.72,-704.07 529.9,-708.04 534.52,-713.3"/>
<text xml:space="preserve" text-anchor="middle" x="538.85" y="-739.1" font-family="Times New Roman,serif" font-size="14.00">provisions</text>
</g>
<!-- networking&#45;&gt;vwan -->
<g id="edge9" class="edge">
<title>networking&#45;&gt;vwan</title>
<path fill="none" stroke="black" stroke-dasharray="1,5" d="M525.62,-171.44C563.03,-147.68 610.08,-117.8 647.26,-94.19"/>
<polygon fill="black" stroke="black" points="649.13,-97.14 655.7,-88.83 645.38,-91.23 649.13,-97.14"/>
<text xml:space="preserve" text-anchor="middle" x="635.94" y="-128.2" font-family="Times New Roman,serif" font-size="14.00">connects to hub</text>
</g>
<!-- database&#45;&gt;networking -->
<g id="edge10" class="edge">
<title>database&#45;&gt;networking</title>
<path fill="none" stroke="black" stroke-dasharray="1,5" d="M400.16,-318.62C392.95,-308.21 389.65,-296.61 394.5,-284.5 395.57,-281.82 396.8,-279.19 398.16,-276.6"/>
<polygon fill="black" stroke="black" points="401.07,-278.56 403.21,-268.19 395.06,-274.96 401.07,-278.56"/>
<text xml:space="preserve" text-anchor="middle" x="425.62" y="-287.7" font-family="Times New Roman,serif" font-size="14.00">uses subnet</text>
</g>
<!-- database&#45;&gt;security -->
<g id="edge11" class="edge">
<title>database&#45;&gt;security</title>
<path fill="none" stroke="black" stroke-dasharray="1,5" d="M523.17,-318.67C548.35,-300.69 577.43,-279.92 603.03,-261.65"/>
<polygon fill="black" stroke="black" points="604.95,-264.58 611.05,-255.92 600.88,-258.88 604.95,-264.58"/>
<text xml:space="preserve" text-anchor="middle" x="601.25" y="-287.7" font-family="Times New Roman,serif" font-size="14.00">stores secrets</text>
</g>
<!-- compute&#45;&gt;networking -->
<g id="edge12" class="edge">
<title>compute&#45;&gt;networking</title>
<path fill="none" stroke="black" stroke-dasharray="1,5" d="M600.5,-461.77C598.43,-450.02 594.85,-437.77 588.75,-427.5 582.21,-416.49 572.45,-420.7 566.25,-409.5 539.15,-360.57 579.1,-333.29 551.75,-284.5 546.9,-275.85 540.52,-267.9 533.39,-260.69"/>
<polygon fill="black" stroke="black" points="536.18,-258.51 526.5,-254.21 531.38,-263.61 536.18,-258.51"/>
<text xml:space="preserve" text-anchor="middle" x="600" y="-359.2" font-family="Times New Roman,serif" font-size="14.00">uses subnets</text>
</g>
<!-- compute&#45;&gt;security -->
<g id="edge13" class="edge">
<title>compute&#45;&gt;security</title>
<path fill="none" stroke="black" stroke-dasharray="1,5" d="M620.89,-461.51C626.92,-445.33 633.25,-426.79 637.75,-409.5 649.82,-363.15 658.22,-309.38 663.38,-269.97"/>
<polygon fill="black" stroke="black" points="666.83,-270.61 664.62,-260.25 659.89,-269.72 666.83,-270.61"/>
<text xml:space="preserve" text-anchor="middle" x="699.4" y="-359.2" font-family="Times New Roman,serif" font-size="14.00">retrieves secrets</text>
</g>
<!-- compute&#45;&gt;database -->
<g id="edge14" class="edge">
<title>compute&#45;&gt;database</title>
<path fill="none" stroke="black" stroke-dasharray="1,5" d="M537.09,-469.38C515.71,-457.18 496.91,-446.14 495,-444 488.72,-436.96 483.45,-428.6 479.08,-419.99"/>
<polygon fill="black" stroke="black" points="482.39,-418.79 474.99,-411.21 476.04,-421.75 482.39,-418.79"/>
<text xml:space="preserve" text-anchor="middle" x="541.88" y="-430.7" font-family="Times New Roman,serif" font-size="14.00">connection string</text>
</g>
<!-- monitoring&#45;&gt;vwan -->
<g id="edge15" class="edge">
<title>monitoring&#45;&gt;vwan</title>
<path fill="none" stroke="black" stroke-dasharray="1,5" d="M644.48,-611.75C648.86,-609.26 653.3,-606.98 657.75,-605 692.64,-589.48 710.32,-608.67 741.75,-587 776.08,-563.33 792.75,-549.95 792.75,-508.25 792.75,-508.25 792.75,-508.25 792.75,-212 792.75,-178.13 777.54,-144.4 760.15,-116.89"/>
<polygon fill="black" stroke="black" points="763.17,-115.13 754.75,-108.7 757.33,-118.98 763.17,-115.13"/>
<text xml:space="preserve" text-anchor="middle" x="817.12" y="-359.2" font-family="Times New Roman,serif" font-size="14.00">monitors</text>
</g>
<!-- monitoring&#45;&gt;database -->
<g id="edge17" class="edge">
<title>monitoring&#45;&gt;database</title>
<path fill="none" stroke="black" stroke-dasharray="1,5" d="M526.73,-611.79C508.71,-595.23 490.87,-574.96 480,-552.5 460.17,-511.54 456.22,-459.73 456.74,-421"/>
<polygon fill="black" stroke="black" points="460.22,-421.54 456.97,-411.45 453.23,-421.36 460.22,-421.54"/>
<text xml:space="preserve" text-anchor="middle" x="504.38" y="-502.2" font-family="Times New Roman,serif" font-size="14.00">monitors</text>
</g>
<!-- monitoring&#45;&gt;compute -->
<g id="edge16" class="edge">
<title>monitoring&#45;&gt;compute</title>
<path fill="none" stroke="black" stroke-dasharray="1,5" d="M591.55,-611.9C593.17,-596.89 595,-579.93 596.71,-564.14"/>
<polygon fill="black" stroke="black" points="600.17,-564.72 597.76,-554.41 593.21,-563.97 600.17,-564.72"/>
<text xml:space="preserve" text-anchor="middle" x="620.08" y="-573.7" font-family="Times New Roman,serif" font-size="14.00">monitors</text>
</g>
<!-- external -->
<g id="node10" class="node">
<title>external</title>
<ellipse fill="lightgray" stroke="black" cx="795.75" cy="-657.33" rx="129.05" ry="52.33"/>
<text xml:space="preserve" text-anchor="middle" x="795.75" y="-677.03" font-family="Times New Roman,serif" font-size="14.00">External Connectivity</text>
<text xml:space="preserve" text-anchor="middle" x="795.75" y="-660.53" font-family="Times New Roman,serif" font-size="14.00">&#45; Branch Sites (VPN)</text>
<text xml:space="preserve" text-anchor="middle" x="795.75" y="-644.03" font-family="Times New Roman,serif" font-size="14.00">&#45; On&#45;Premises (ExpressRoute)</text>
<text xml:space="preserve" text-anchor="middle" x="795.75" y="-627.53" font-family="Times New Roman,serif" font-size="14.00">&#45; Internet (App Gateway)</text>
</g>
<!-- external&#45;&gt;vwan -->
<g id="edge18" class="edge">
<title>external&#45;&gt;vwan</title>
<path fill="none" stroke="black" stroke-dasharray="5,2" d="M838.91,-607.55C858.67,-580.28 877.75,-544.54 877.75,-508.25 877.75,-508.25 877.75,-508.25 877.75,-212 877.75,-152.09 820.19,-108.36 772.46,-82.38"/>
<polygon fill="black" stroke="black" points="774.26,-79.38 763.78,-77.82 771,-85.57 774.26,-79.38"/>
<text xml:space="preserve" text-anchor="middle" x="901.38" y="-359.2" font-family="Times New Roman,serif" font-size="14.00">connects</text>
</g>
<!-- external&#45;&gt;compute -->
<g id="edge19" class="edge">
<title>external&#45;&gt;compute</title>
<path fill="none" stroke="black" stroke-dasharray="5,2" d="M736.01,-610.49C715.08,-594.43 691.45,-576.3 669.96,-559.81"/>
<polygon fill="black" stroke="black" points="672.15,-557.09 662.09,-553.78 667.89,-562.64 672.15,-557.09"/>
<text xml:space="preserve" text-anchor="middle" x="721.54" y="-573.7" font-family="Times New Roman,serif" font-size="14.00">traffic</text>
</g>
</g>
</svg>
